# xmcd CD database file
#
# Track frame offsets:
#	150
#	16788
#	36646
#	52258
#	76162
#	101081
#	123018
#	147883
#	176054
#	221143
#	243984
#	259039
#	283194
#	334733
#
# Disc length: 4760 seconds
#
# Revision: 0
# Processed by: cddbd v1.5.2PL0 Copyright (c) Steve Scherf et al.
# Submitted via: Feurio! 1.68 - http://www.feurio.com
#
DISCID=cf12960e
DTITLE=Michelle Malone - Anaheim Nov 18 2003
DYEAR=1900
DGENRE=
TTITLE0=2 Horns and 2 Wings
TTITLE1=Flagpole
TTITLE2=My Green Thumb
TTITLE3=Avalon
TTITLE4=Cypress Inn
TTITLE5=Home Grown
TTITLE6=Superball
TTITLE7=Hollow Day
TTITLE8=Lafayette
TTITLE9=Michelle Malone/Indigo Girls - Ozilline
TTITLE10=Michelle Malone/Indigo Girls - I Don't Wanna Know
TTITLE11=Michelle Malone/Indigo Girls - Watershed
TTITLE12=Michelle Malone/Indigo Girls - Chickenman/Bitterroot
TTITLE13=Michelle Malone/Indigo Girls - Closer To Fine
EXTD=
EXTT0=
EXTT1=
EXTT2=
EXTT3=
EXTT4=
EXTT5=
EXTT6=
EXTT7=
EXTT8=
EXTT9=
EXTT10=
EXTT11=
EXTT12=
EXTT13=
PLAYORDER=
